{"title":"Argo 2012 TS XviD AC3-ADTRG","uid":7752758,"size":1564156898,"categoryP":"video","categoryS":"movies","magnet":"?xt=urn:btih:ea30c0d962d8182f239242d875831be66323e15d&amp;dn=Argo+2012+TS+XviD+AC3-ADTRG&amp;tr=udp%3A%2F%2Ftracker.openbittorrent.com%3A80&amp;tr=udp%3A%2F%2Fopen.demonii.com%3A1337&amp;tr=udp%3A%2F%2Ftracker.coppersurfer.tk%3A6969&amp;tr=udp%3A%2F%2Fexodus.desync.com%3A6969","seeders":1,"leechers":0,"uploader":".BONE.","files":4,"time":1351008258,"description":" &lt;a href=&quot;http://www.imdb.com/title/tt1024648/&quot; rel=&quot;nofollow&quot; target=&quot;_NEW&quot;&gt;http://www.imdb.com/title/tt1024648/&lt;/a&gt;\n\n\nA dramatization of the 1980 joint CIA-Canadian secret operation to extract six fugitive American diplomatic personnel out of revolutionary Iran.\n\n\n\nDirector:\nBen Affleck\n\nWriters:\nChris Terrio (screenplay), Joshuah Bearman (article)\n\nStars:\nBen Affleck, Bryan Cranston and John Goodman\n\nGenres:\nBiography | Drama | Thriller\n\n\n\nFormat : AVI\nFormat/Info : Audio Video Interleave\nFile size : 1.40 GiB\nDuration : 1h 51mn\nOverall bit rate : 1 798 Kbps\nWriting application : VirtualDubMod 1.5.10.2 (build 2540/release)\nWriting library : VirtualDub build 33848/release\n\nVideo\nID : 0\nFormat : MPEG-4 Visual\nFormat profile : Advanced Simple@L5\nFormat settings, BVOP : 2\nFormat settings, QPel : No\nFormat settings, GMC : No warppoints\nFormat settings, Matrix : Default (H.263)\nMuxing mode : Packed bitstream\nCodec ID : XVID\nCodec ID/Hint : XviD\nDuration : 1h 51mn\nBit rate : 1 597 Kbps\nWidth : 704 pixels\nHeight : 336 pixels\nDisplay aspect ratio : 2.095\nFrame rate : 23.976 fps\nColor space : YUV\nChroma subsampling : 4:2:0\nBit depth : 8 bits\nScan type : Progressive\nCompression mode : Lossy\nBits/(Pixel*Frame) : 0.282\nStream size : 1.24 GiB (89%)\nWriting library : XviD 64\n\nAudio\nID : 1\nFormat : AC-3\nFormat/Info : Audio Coding 3\nMode extension : CM (complete main)\nFormat settings, Endianness : Big\nCodec ID : 2000\nDuration : 1h 51mn\nBit rate mode : Constant\nBit rate : 192 Kbps\nChannel(s) : 2 channels\nChannel positions : Front: L R\nSampling rate : 48.0 KHz\nBit depth : 16 bits\nCompression mode : Lossy\nStream size : 153 MiB (11%)\nAlignment : Split accross interleaves\nInterleave, duration : 42 ms (1.00 video frame)\nInterleave, preload duration : 500 ms","torrent":{"xt":"urn:btih:ea30c0d962d8182f239242d875831be66323e15d","amp;dn":"Argo+2012+TS+XviD+AC3-ADTRG","amp;tr":["udp%3A%2F%2Ftracker.openbittorrent.com%3A80","udp%3A%2F%2Fopen.demonii.com%3A1337","udp%3A%2F%2Ftracker.coppersurfer.tk%3A6969","udp%3A%2F%2Fexodus.desync.com%3A6969"],"infoHash":"ea30c0d962d8182f239242d875831be66323e15d","infoHashBuffer":{"type":"Buffer","data":[234,48,192,217,98,216,24,47,35,146,66,216,117,131,27,230,99,35,225,93]},"announce":[],"urlList":[]}}